<?xml version="1.0" encoding="iso-8859-1"?>
<!-- Generator: Adobe Illustrator 16.0.0, SVG Export Plug-In . SVG Version: 6.00 Build 0)  -->
<!DOCTYPE svg PUBLIC "-//W3C//DTD SVG 1.1//EN" "http://www.w3.org/Graphics/SVG/1.1/DTD/svg11.dtd">
<svg version="1.1" id="Capa_1" xmlns="http://www.w3.org/2000/svg" xmlns:xlink="http://www.w3.org/1999/xlink" x="0px" y="0px"
	 width="611.979px" height="611.98px" viewBox="0 0 611.979 611.98" style="enable-background:new 0 0 611.979 611.98;"
	 xml:space="preserve">
<g>
	<g>
		<path d="M564.914,593.503H47.105C21.136,593.503,0,572.368,0,546.398v-18.486c0-12.753,5.016-24.686,14.118-33.625l73.642-73.662
			c8.798-8.778,20.934-13.805,33.302-13.805h369.868c12.772,0,24.706,5.026,33.615,14.138l73.642,73.652
			c8.89,8.858,13.794,20.69,13.794,33.302v18.486C612,572.368,590.885,593.503,564.914,593.503z M121.071,427.036
			c-7.049,0-13.986,2.872-19.012,7.888l-73.703,73.723c-5.269,5.168-8.131,11.984-8.131,19.266v18.486
			c0,14.825,12.055,26.88,26.88,26.88h517.809c14.806,0,26.85-12.055,26.85-26.88v-18.486c0-7.2-2.791-13.936-7.857-18.982
			l-73.732-73.753c-5.158-5.269-11.964-8.141-19.235-8.141H121.071z M375.703,527.396H244.236c-5.593,0-10.113-4.521-10.113-10.113
			s4.52-10.112,10.113-10.112h131.467c5.592,0,10.112,4.52,10.112,10.112S381.295,527.396,375.703,527.396z M490.938,390.083
			H121.071c-36.164,0-65.592-29.429-65.592-65.592V84.068c-0.01-36.164,29.429-65.592,65.592-65.592h369.867
			c36.164,0,65.582,29.428,65.582,65.592v240.424C556.521,360.655,527.103,390.083,490.938,390.083z M121.071,38.702
			c-25.02,0-45.376,20.357-45.376,45.366v240.424c0,25.019,20.357,45.366,45.366,45.366h369.868
			c25.02,0,45.356-20.357,45.356-45.366V84.068c0.01-25.009-20.327-45.366-45.347-45.366H121.071z M490.938,334.604H121.071
			c-5.593,0-10.113-4.521-10.113-10.112V84.068c0-5.592,4.52-10.113,10.113-10.113h369.867c5.593,0,10.113,4.521,10.113,10.113
			v240.424C501.052,330.074,496.531,334.604,490.938,334.604z M131.184,314.378h349.642V94.181H131.184V314.378z"/>
	</g>
</g>
<g>
</g>
<g>
</g>
<g>
</g>
<g>
</g>
<g>
</g>
<g>
</g>
<g>
</g>
<g>
</g>
<g>
</g>
<g>
</g>
<g>
</g>
<g>
</g>
<g>
</g>
<g>
</g>
<g>
</g>
</svg>
